<svg width="24" height="24" viewBox="0 0 24 24" fill="none" xmlns="http://www.w3.org/2000/svg">
<path d="M16.75 9.12L14.9 7.27C14.2 6.57 13.24 6.61 12.77 7.35L11.74 8.98L15.03 12.27L16.66 11.24C17.37 10.8 17.41 9.77 16.75 9.12Z" stroke="white" stroke-width="1.5" stroke-linecap="round" stroke-linejoin="round"/>
<path d="M11.74 8.98L9.35 8.84C8.01 8.76 7.55 9.17 7.4 10.44L6.8 15.51C6.67 16.58 7.44 17.34 8.51 17.22L13.58 16.62C14.85 16.47 15.31 16.01 15.18 14.67L15.04 12.28M7.49 16.52L9.34 14.67" stroke="white" stroke-width="1.5" stroke-linecap="round" stroke-linejoin="round"/>
<path d="M9 22H15C20 22 22 20 22 15V9C22 4 20 2 15 2H9C4 2 2 4 2 9V15C2 20 4 22 9 22Z" stroke="white" stroke-width="1.5" stroke-linecap="round" stroke-linejoin="round"/>
</svg>
