<svg width="41" height="40" viewBox="0 0 41 40" fill="none" xmlns="http://www.w3.org/2000/svg">
<path d="M20.5 23.8095C22.604 23.8095 24.3095 22.1039 24.3095 20C24.3095 17.8961 22.604 16.1905 20.5 16.1905C18.3961 16.1905 16.6905 17.8961 16.6905 20C16.6905 22.1039 18.3961 23.8095 20.5 23.8095Z" fill="#087EA4"/>
<path d="M20.5 28.5714C31.0197 28.5714 39.5476 24.7339 39.5476 20C39.5476 15.2661 31.0197 11.4286 20.5 11.4286C9.9803 11.4286 1.45239 15.2661 1.45239 20C1.45239 24.7339 9.9803 28.5714 20.5 28.5714Z" stroke="#087EA4" stroke-width="1.90476"/>
<path d="M13.077 24.2857C18.3368 33.396 25.9242 38.8626 30.0238 36.4957C34.1235 34.1288 33.183 24.8246 27.9231 15.7143C22.6632 6.60395 15.0759 1.13735 10.9762 3.50428C6.87657 5.87122 7.8171 15.1754 13.077 24.2857Z" stroke="#087EA4" stroke-width="1.90476"/>
<path d="M13.0769 15.7143C7.81709 24.8246 6.87656 34.1288 10.9762 36.4957C15.0759 38.8626 22.6632 33.396 27.9231 24.2857C33.1829 15.1754 34.1235 5.87121 30.0238 3.50428C25.9242 1.13734 18.3368 6.60395 13.0769 15.7143Z" stroke="#087EA4" stroke-width="1.90476"/>
</svg>
